<svg width="0" height="0" class="hidden">
  <symbol xmlns="http://www.w3.org/2000/svg" viewBox="0 0 640 640" id="facebook">
    <path fill="currentColor" d="M160 96c-35.3 0-64 28.7-64 64v320c0 35.3 28.7 64 64 64h98.2V398.2h-52.8V320h52.8v-33.7c0-87.1 39.4-127.5 125-127.5 16.2 0 44.2 3.2 55.7 6.4V236c-6-.6-16.5-1-29.6-1-42 0-58.2 15.9-58.2 57.2V320h83.6l-14.4 78.2H351V544h129c35.3 0 64-28.7 64-64V160c0-35.3-28.7-64-64-64z"></path>
  </symbol>
  <symbol xmlns="http://www.w3.org/2000/svg" viewBox="0 0 640 640" id="instagram">
    <path fill="currentColor" d="M290.4 275.7C274 286 264.5 304.5 265.5 323.8C266.6 343.2 278.2 360.4 295.6 368.9C313.1 377.3 333.8 375.5 349.6 364.3C366 354 375.5 335.5 374.5 316.2C373.4 296.8 361.8 279.6 344.4 271.1C326.9 262.7 306.2 264.5 290.4 275.7zM432.7 207.3C427.5 202.1 421.2 198 414.3 195.3C396.2 188.2 356.7 188.5 331.2 188.8C327.1 188.8 323.3 188.9 320 188.9C316.7 188.9 312.8 188.9 308.6 188.8C283.1 188.5 243.8 188.1 225.7 195.3C218.8 198 212.6 202.1 207.3 207.3C202 212.5 198 218.8 195.3 225.7C188.2 243.8 188.6 283.4 188.8 308.9C188.8 313 188.9 316.8 188.9 320C188.9 323.2 188.9 327 188.8 331.1C188.6 356.6 188.2 396.2 195.3 414.3C198 421.2 202.1 427.4 207.3 432.7C212.5 438 218.8 442 225.7 444.7C243.8 451.8 283.3 451.5 308.8 451.2C312.9 451.2 316.7 451.1 320 451.1C323.3 451.1 327.2 451.1 331.4 451.2C356.9 451.5 396.2 451.9 414.3 444.7C421.2 442 427.4 437.9 432.7 432.7C438 427.5 442 421.2 444.7 414.3C451.9 396.3 451.5 356.9 451.2 331.3C451.2 327.1 451.1 323.2 451.1 319.9C451.1 316.6 451.1 312.8 451.2 308.5C451.5 283 451.9 243.6 444.7 225.5C442 218.6 437.9 212.4 432.7 207.1L432.7 207.3zM365.6 251.8C383.7 263.9 396.2 282.7 400.5 304C404.8 325.3 400.3 347.5 388.2 365.6C382.2 374.6 374.5 382.2 365.6 388.2C356.7 394.2 346.6 398.3 336 400.4C314.7 404.6 292.5 400.2 274.4 388.1C256.3 376 243.8 357.2 239.5 335.9C235.2 314.6 239.7 292.4 251.7 274.3C263.7 256.2 282.6 243.7 303.9 239.4C325.2 235.1 347.4 239.6 365.5 251.6L365.6 251.6zM394.8 250.5C391.7 248.4 389.2 245.4 387.7 241.9C386.2 238.4 385.9 234.6 386.6 230.8C387.3 227 389.2 223.7 391.8 221C394.4 218.3 397.9 216.5 401.6 215.8C405.3 215.1 409.2 215.4 412.7 216.9C416.2 218.4 419.2 220.8 421.3 223.9C423.4 227 424.5 230.7 424.5 234.5C424.5 237 424 239.5 423.1 241.8C422.2 244.1 420.7 246.2 419 248C417.3 249.8 415.1 251.2 412.8 252.2C410.5 253.2 408 253.7 405.5 253.7C401.7 253.7 398 252.6 394.9 250.5L394.8 250.5zM544 160C544 124.7 515.3 96 480 96L160 96C124.7 96 96 124.7 96 160L96 480C96 515.3 124.7 544 160 544L480 544C515.3 544 544 515.3 544 480L544 160zM453 453C434.3 471.7 411.6 477.6 386 478.9C359.6 480.4 280.4 480.4 254 478.9C228.4 477.6 205.7 471.7 187 453C168.3 434.3 162.4 411.6 161.2 386C159.7 359.6 159.7 280.4 161.2 254C162.5 228.4 168.3 205.7 187 187C205.7 168.3 228.5 162.4 254 161.2C280.4 159.7 359.6 159.7 386 161.2C411.6 162.5 434.3 168.3 453 187C471.7 205.7 477.6 228.4 478.8 254C480.3 280.3 480.3 359.4 478.8 385.9C477.5 411.5 471.7 434.2 453 452.9L453 453z"></path>
  </symbol>
  <symbol xmlns="http://www.w3.org/2000/svg" viewBox="0 0 640 640" id="pinterest">
    <path fill="currentColor" d="M480 96L160 96C124.7 96 96 124.7 96 160L96 480C96 515.3 124.7 544 160 544L232.6 544L230.4 543.2C225 495.1 227.3 485.7 246.1 408.5C250 392.5 254.6 373.5 260 350.6C260 350.6 252.7 335.8 252.7 314.1C252.7 243.4 328.2 236.1 328.2 289.1C328.2 302.6 322.8 320.2 317 338.9C313.7 349.5 310.4 360.4 307.9 370.9C302.2 395.4 320.2 415.3 344.3 415.3C388 415.3 421.5 369.3 421.5 302.9C421.5 244.1 379.2 203 318.9 203C249 203 208 255.4 208 309.6C208 330.7 216.2 353.3 226.3 365.6C228.3 368 228.6 370.1 228 372.6C226.9 377.3 224.9 385.5 223.3 391.8C222.3 395.8 221.5 399.1 221.2 400.4C220.1 404.9 217.7 405.9 213 403.7C182.4 389.4 163.2 344.6 163.2 308.6C163.2 231.1 219.4 160 325.4 160C410.6 160 476.8 220.7 476.8 301.8C476.8 386.4 423.5 454.5 349.4 454.5C324.5 454.5 301.1 441.6 293.1 426.3C293.1 426.3 280.8 473.2 277.8 484.7C272.8 504 260.2 527.6 250.4 544L480 544C515.3 544 544 515.3 544 480L544 160C544 124.7 515.3 96 480 96z"></path>
  </symbol>
  <symbol xmlns="http://www.w3.org/2000/svg" viewBox="0 0 640 640" id="xtwitter">
    <path fill="currentColor" d="M160 96C124.7 96 96 124.7 96 160L96 480C96 515.3 124.7 544 160 544L480 544C515.3 544 544 515.3 544 480L544 160C544 124.7 515.3 96 480 96L160 96zM457.1 180L353.3 298.6L475.4 460L379.8 460L305 362.1L219.3 460L171.8 460L282.8 333.1L165.7 180L263.7 180L331.4 269.5L409.6 180L457.1 180zM419.3 431.6L249.4 206.9L221.1 206.9L392.9 431.6L419.3 431.6z"></path>
  </symbol>
</svg>